<svg width="63" height="64" viewBox="0 0 63 64" fill="none" xmlns="http://www.w3.org/2000/svg">
<path d="M30.6455 4.24977C30.7087 3.80842 31.3461 3.80843 31.4093 4.24977L34.4913 25.8233L45.3426 17.685C45.6993 17.4175 46.1501 17.8683 45.8826 18.2249L37.8106 28.9871L59.2022 32.0427C59.6436 32.1058 59.6436 32.7432 59.2022 32.8064L37.8109 35.862L45.8826 46.6242C46.1501 46.9807 45.6993 47.4315 45.3426 47.1641L34.4913 39.0254L31.4093 60.5993C31.3461 61.0407 30.7087 61.0407 30.6455 60.5993L27.5862 39.1816L16.943 47.1641C16.5864 47.4315 16.1356 46.9807 16.4031 46.6242L24.4521 35.8918L2.85266 32.8064C2.4113 32.7432 2.41129 32.1058 2.85266 32.0427L24.4525 28.9569L16.4034 18.2249C16.1359 17.8683 16.5864 17.4177 16.943 17.685L27.5862 25.6669L30.6455 4.24977Z" fill="#1B1A14"/>
</svg>
