<svg width="260" height="64" viewBox="0 0 260 64" fill="none" xmlns="http://www.w3.org/2000/svg">
<mask id="mask0_6892_488" style="mask-type:luminance" maskUnits="userSpaceOnUse" x="5" y="5" width="54" height="54">
<path d="M5.97803 58.022V5.978H58.022V58.022H5.97803Z" fill="white"/>
</mask>
<g mask="url(#mask0_6892_488)">
<path d="M31.6618 8.36781C31.7147 7.99792 32.2489 7.99792 32.3018 8.36781L34.8848 26.4486L43.9793 19.6277C44.2782 19.4035 44.656 19.7813 44.4318 20.0802L37.6668 29.0998L55.5949 31.6608C55.9649 31.7137 55.9649 32.2481 55.5949 32.301L37.6671 34.8617L44.4318 43.8814C44.656 44.1806 44.2782 44.5581 43.9793 44.3342L34.8848 37.513L32.3018 55.5941C32.249 55.9638 31.7147 55.9638 31.6618 55.5941L29.0977 37.6439L20.1778 44.3342C19.8789 44.5581 19.5011 44.1806 19.7253 43.8814L26.4711 34.8868L8.36873 32.301C7.99884 32.2481 7.99883 31.7137 8.36873 31.6608L26.4714 29.0747L19.7256 20.0802C19.5014 19.7813 19.8789 19.4038 20.1778 19.6277L29.0977 26.3174L31.6618 8.36781Z" fill="#FFFEEF"/>
</g>
<path d="M72.967 57.217V56.1936C75.3792 55.3899 75.8909 53.1968 75.8909 47.9344V15.3349C75.8909 10.0723 75.3792 7.87948 72.967 7.07547V6.05219H91.0209C103.008 6.05219 107.394 9.77989 107.394 15.7003C107.394 20.6708 104.251 25.2024 95.0411 26.8105C107.101 27.176 113.241 32.7311 113.314 40.0401C113.46 48.592 106.809 57.217 88.8282 57.217H72.967ZM83.6387 49.6886C83.6387 54.9511 84.2966 56.0474 87.4395 56.0474H89.4861C100.011 56.0474 104.616 50.4924 104.616 42.7446C104.616 33.9736 99.7189 27.7607 88.8282 27.7607H83.6387V49.6886ZM83.6387 26.5911H90.144C95.4796 26.5911 98.6958 22.4979 98.6958 17.3817C98.6958 10.9494 94.0909 7.22166 86.6355 7.22166H83.6387V26.5911ZM142.686 57.9478C132.16 57.9478 121.342 53.0507 121.342 37.336V15.3349C121.342 10.0723 120.831 7.87948 118.419 7.07547V6.05219H132.014V7.07547C129.602 7.87948 129.09 10.0723 129.09 15.3349V37.9206C129.09 51.2235 135.669 56.1936 145.609 56.1936C151.749 56.1936 159.716 51.662 159.716 37.4821V19.7206C159.716 10.8032 157.962 8.24495 154.161 7.07547V6.05219H163.955V7.07547C161.543 7.87948 161.032 10.0723 161.032 15.3349V37.336C161.032 52.0275 153.357 57.9478 142.686 57.9478ZM169.33 57.217V56.1936C171.741 55.3899 172.253 53.1968 172.253 47.9344V15.3349C172.253 10.0723 171.741 7.87948 169.33 7.07547V6.05219H182.925V7.07547C180.513 7.87948 180.001 10.0723 180.001 15.3349V52.2466C180.001 54.5858 181.317 55.9013 183.656 55.9013H189.649C197.032 55.9013 200.833 54.147 203.756 47.8611L204.706 48.0073L204.122 57.217H169.33ZM209.445 57.217V56.1936C211.857 55.3899 212.369 53.1968 212.369 47.9344V15.3349C212.369 10.0723 211.857 7.87948 209.445 7.07547V6.05219H223.04V7.07547C220.628 7.87948 220.116 10.0723 220.116 15.3349V32.5117L237.878 14.3116C242.556 9.56062 242.775 7.29475 239.632 6.78309V6.05219H251.108V7.07547C248.184 7.87948 244.822 8.9028 241.094 12.7036L225.525 28.638L227.352 28.5647C238.316 27.9801 240.436 31.7077 244.968 43.3295C249.28 54.4396 250.304 56.1936 252.642 56.1936C253.008 56.1936 253.3 56.1936 253.739 56.1207V57.217C252.058 57.6555 250.304 57.7288 248.769 57.7288C242.702 57.7288 241.898 55.9745 237.512 45.2299C232.908 33.9004 232.176 29.8805 225.598 29.8805H224.282L220.116 34.1927V47.9344C220.116 53.1968 220.628 55.3899 223.04 56.1936V57.217H209.445Z" fill="#FFFEEF"/>
</svg>
