<svg width="83" height="32" viewBox="0 0 83 32" fill="none" xmlns="http://www.w3.org/2000/svg">
<path d="M8.59277 8.09361C8.61045 7.96985 8.78919 7.96986 8.80689 8.09361L9.67106 14.1427L12.7137 11.8607C12.8137 11.7857 12.9401 11.9121 12.8651 12.0121L10.6018 15.0297L16.5998 15.8865C16.7236 15.9042 16.7236 16.083 16.5998 16.1006L10.6019 16.9574L12.8651 19.975C12.9401 20.0751 12.8137 20.2014 12.7137 20.1264L9.67106 17.8444L8.80689 23.8936C8.7892 24.0173 8.61045 24.0173 8.59277 23.8936L7.73492 17.8882L4.75068 20.1264C4.65067 20.2014 4.52428 20.0751 4.59928 19.975L6.85617 16.9658L0.799846 16.1006C0.676095 16.083 0.676091 15.9042 0.799846 15.8865L6.85628 15.0213L4.59938 12.0121C4.52438 11.9121 4.65067 11.7858 4.75068 11.8607L7.73492 14.0988L8.59277 8.09361Z" fill="#FFFEEF"/>
<path d="M22.3258 24V23.6576C23.1328 23.3887 23.3039 22.655 23.3039 20.8944V9.98795C23.3039 8.22728 23.1328 7.49366 22.3258 7.22467V6.88232H28.3659C32.3763 6.88232 33.8435 8.12946 33.8435 10.1102C33.8435 11.7731 32.792 13.2892 29.7108 13.8272C33.7457 13.9495 35.7998 15.808 35.8243 18.2533C35.8732 21.1144 33.6479 24 27.6323 24H22.3258ZM25.896 21.4813C25.896 23.2419 26.1161 23.6087 27.1676 23.6087H27.8523C31.3737 23.6087 32.9143 21.7502 32.9143 19.1581C32.9143 16.2237 31.2759 14.1451 27.6323 14.1451H25.896V21.4813ZM25.896 13.7538H28.0724C29.8576 13.7538 30.9335 12.3844 30.9335 10.6727C30.9335 8.52072 29.3929 7.27358 26.8986 7.27358H25.896V13.7538ZM45.6507 24.2445C42.1294 24.2445 38.5102 22.6061 38.5102 17.3486V9.98795C38.5102 8.22728 38.339 7.49366 37.5321 7.22467V6.88232H42.0805V7.22467C41.2735 7.49366 41.1023 8.22728 41.1023 9.98795V17.5442C41.1023 21.9948 43.3032 23.6576 46.6289 23.6576C48.683 23.6576 51.3485 22.1415 51.3485 17.3975V11.4552C51.3485 8.47182 50.7616 7.61593 49.49 7.22467V6.88232H52.7668V7.22467C51.9598 7.49366 51.7886 8.22728 51.7886 9.98795V17.3486C51.7886 22.2638 49.221 24.2445 45.6507 24.2445ZM54.5647 24V23.6576C55.3717 23.3887 55.5429 22.655 55.5429 20.8944V9.98795C55.5429 8.22728 55.3717 7.49366 54.5647 7.22467V6.88232H59.1131V7.22467C58.3062 7.49366 58.135 8.22728 58.135 9.98795V22.3371C58.135 23.1197 58.5752 23.5598 59.3577 23.5598H61.3629C63.8327 23.5598 65.1043 22.9729 66.0825 20.8699L66.4004 20.9188L66.2047 24H54.5647ZM67.9857 24V23.6576C68.7926 23.3887 68.9638 22.655 68.9638 20.8944V9.98795C68.9638 8.22728 68.7926 7.49366 67.9857 7.22467V6.88232H72.5341V7.22467C71.7271 7.49366 71.5559 8.22728 71.5559 9.98795V15.7346L77.4982 9.6456C79.0633 8.0561 79.1366 7.29803 78.0851 7.12685V6.88232H81.9244V7.22467C80.9462 7.49366 79.8213 7.83602 78.5742 9.10762L73.3655 14.4386L73.9769 14.4141C77.6449 14.2185 78.3541 15.4656 79.8702 19.3538C81.313 23.0708 81.6554 23.6576 82.4379 23.6576C82.5602 23.6576 82.658 23.6576 82.8047 23.6332V24C82.2423 24.1467 81.6554 24.1712 81.1418 24.1712C79.1122 24.1712 78.8432 23.5843 77.3759 19.9896C75.8354 16.1992 75.5908 14.8543 73.39 14.8543H72.9498L71.5559 16.297V20.8944C71.5559 22.655 71.7271 23.3887 72.5341 23.6576V24H67.9857Z" fill="#FFFEEF"/>
</svg>
